PathFileType	4	(X/Y/Z)	/Users/itak/Documents/Research/Walk-IL/dataset/trc/00296_00010.trc
DataRate	CameraRate	NumFrames	NumMarkers	Units	OrigDataRate	OrigDataStartFrame	OrigNumFrames
100.000000	100.000000	4	53	mm	100.000000	334	669
Frame#	Time	RPSI			LPSI			L3			STRN			T10			C7			CLAV			RBAK			LBAK			LSHO			LUPA			LAEL			LAOL			LWTS			LWPS			LFRA			LIFD			LHPS			LHTS			RSHO			RUPA			RAEL			RAOL			RWTS			RWPS			RFRA			RIFD			RHTS			RHPS			RBHD			LFHD			RFHD			LBHD			RHIP			RASI			LASI			LKNE			LTHI			LANK			LTIP			LTOE			LMT1			LMT5			LHEE			RKNE			RTHI			RANK			RTIP			RTOE			RMT1			RMT5			RHEE			LHIP			
		X1	Y1	Z1	X2	Y2	Z2	X3	Y3	Z3	X4	Y4	Z4	X5	Y5	Z5	X6	Y6	Z6	X7	Y7	Z7	X8	Y8	Z8	X9	Y9	Z9	X10	Y10	Z10	X11	Y11	Z11	X12	Y12	Z12	X13	Y13	Z13	X14	Y14	Z14	X15	Y15	Z15	X16	Y16	Z16	X17	Y17	Z17	X18	Y18	Z18	X19	Y19	Z19	X20	Y20	Z20	X21	Y21	Z21	X22	Y22	Z22	X23	Y23	Z23	X24	Y24	Z24	X25	Y25	Z25	X26	Y26	Z26	X27	Y27	Z27	X28	Y28	Z28	X29	Y29	Z29	X30	Y30	Z30	X31	Y31	Z31	X32	Y32	Z32	X33	Y33	Z33	X34	Y34	Z34	X35	Y35	Z35	X36	Y36	Z36	X37	Y37	Z37	X38	Y38	Z38	X39	Y39	Z39	X40	Y40	Z40	X41	Y41	Z41	X42	Y42	Z42	X43	Y43	Z43	X44	Y44	Z44	X45	Y45	Z45	X46	Y46	Z46	X47	Y47	Z47	X48	Y48	Z48	X49	Y49	Z49	X50	Y50	Z50	X51	Y51	Z51	X52	Y52	Z52	X53	Y53	Z53	

335	3.34	-395.7419738769531	974.4837036132812	-290.5054626464844	-411.7496337890625	991.7970581054688	-463.9721069335938	-385.8898620605469	1061.575805664062	-376.877197265625	-124.6737060546875	1220.41064453125	-413.4647521972656	-391.1879272460938	1178.515502929688	-369.5945434570312	-332.0511474609375	1417.72998046875	-396.2732238769531	-182.0010833740234	1323.827392578125	-411.3243103027344	-381.0300903320312	1287.203247070312	-307.8122863769531	-361.9642944335938	1379.842895507812	-496.4833374023438	-279.669189453125	1382.45654296875	-561.0678100585938	-327.0664367675781	1275.130249023438	-639.4768676757812	-350.3016967773438	1077.643188476562	-674.6572875976562	-390.9807739257812	1056.670043945312	-602.9478149414062	-289.1583251953125	850.7052001953125	-705.4839477539062	-353.0220031738281	850.9288330078125	-738.489501953125	-355.5489501953125	975.95166015625	-702.43896484375	-313.9662780761719	670.7140502929688	-742.7850952148438	-360.0660095214844	766.0429077148438	-754.3981323242188	-294.4385986328125	757.7650146484375	-755.1322021484375	-240.6097106933594	1393.625854492188	-250.3334808349609	-237.5987091064453	1337.102905273438	-181.3447265625	-236.0783843994141	1073.886474609375	-111.5830841064453	-294.0704956054688	1061.384643554688	-186.0037994384766	-149.6899871826172	853.7685546875	-188.9285430908203	-165.4696197509766	849.0543212890625	-105.1275405883789	-208.1399383544922	1007.565246582031	-104.7491302490234	-130.6049652099609	670.1920776367188	-185.8917236328125	-106.1071395874023	741.7914428710938	-177.8438415527344	-134.7849426269531	740.6638793945312	-113.1972732543945	-316.6824035644531	1560.888549804688	-326.7712097167969	-142.2421112060547	1614.610595703125	-434.8526611328125	-145.7248382568359	1600.483520507812	-342.9717407226562	-309.9877319335938	1573.158813476562	-472.4927978515625	-286.2701110839844	913.51904296875	-202.4414825439453	-178.5431213378906	927.2338256835938	-287.0341796875	-211.9888610839844	950.0662231445312	-536.3639526367188	-274.6120300292969	486.3934020996094	-596.87548828125	-287.0294189453125	629.9590454101562	-601.8605346679688	-409.9352111816406	50.26588439941406	-611.6235961914062	-339.4932861328125	262.3134155273438	-615.2295532226562	-198.2168426513672	34.83213424682617	-566.024658203125	-269.1873474121094	28.18604278564453	-519.806396484375	-289.1406860351562	41.88361740112305	-629.7887573242188	-454.0204467773438	45.1174430847168	-551.0150756835938	-138.7142486572266	471.6444396972656	-300.2344055175781	-191.0903015136719	716.0925903320312	-240.6090087890625	-478.5558471679688	181.527587890625	-303.4704284667969	-195.3105010986328	365.67333984375	-315.4277038574219	-369.9384155273438	56.30580902099609	-413.0924377441406	-420.871337890625	99.18714904785156	-432.0152893066406	-418.0905456542969	93.78125	-314.4405212402344	-523.284912109375	226.4897155761719	-334.4262390136719	-353.7335510253906	954.351806640625	-571.4100341796875	
336	3.35	-391.0928649902344	974.8765258789062	-293.8538513183594	-404.4146728515625	992.1251220703125	-467.4240112304688	-379.5486755371094	1061.3251953125	-380.9034423828125	-116.9609985351562	1220.451171875	-412.4013366699219	-384.7720031738281	1178.954345703125	-374.6645812988281	-324.0925903320312	1418.05859375	-400.263671875	-174.1049652099609	1323.956909179688	-411.4791870117188	-375.6677551269531	1287.64990234375	-313.0472717285156	-351.5833435058594	1380.18994140625	-501.1610107421875	-267.7794189453125	1382.796752929688	-563.49609375	-312.4313354492188	1275.51708984375	-643.4160766601562	-332.060791015625	1077.990478515625	-681.1694946289062	-374.9884338378906	1056.04736328125	-610.7012329101562	-265.8725891113281	852.8815307617188	-712.1671142578125	-328.9442138671875	852.1480102539062	-746.8179931640625	-334.8155822753906	976.5411376953125	-709.8494262695312	-286.0395202636719	672.8966064453125	-751.9797973632812	-333.651611328125	767.3812866210938	-763.8447265625	-268.2304077148438	759.9933471679688	-762.5902099609375	-236.6361541748047	1393.912353515625	-251.9430084228516	-236.0976409912109	1337.836669921875	-182.7712097167969	-239.0338745117188	1075.324340820312	-110.6691131591797	-293.1001281738281	1062.148315429688	-187.9824066162109	-147.9679718017578	854.689697265625	-180.790771484375	-168.8642578125	850.5410766601562	-98.0460205078125	-211.3668518066406	1009.143920898438	-101.4994201660156	-128.4590606689453	671.3157958984375	-175.1170654296875	-104.7150650024414	743.046875	-165.9401550292969	-137.5508728027344	742.3056030273438	-103.2721939086914	-308.8151245117188	1562.130981445312	-330.7129516601562	-130.5948486328125	1613.2119140625	-433.7620239257812	-136.9015502929688	1599.341796875	-342.0480651855469	-297.7125244140625	1573.993286132812	-476.1886291503906	-282.391357421875	914.624267578125	-204.2179412841797	-173.942138671875	928.0690307617188	-287.7442626953125	-203.6850891113281	949.8682861328125	-537.6461791992188	-271.6407470703125	485.9083251953125	-597.4639892578125	-281.7558898925781	629.5938720703125	-602.5228881835938	-409.7488403320312	50.70590591430664	-611.8324584960938	-338.1935729980469	262.3359375	-615.5137329101562	-198.2330474853516	34.86181259155273	-566.0943603515625	-269.3039245605469	27.9898796081543	-519.7996215820312	-289.0778503417969	41.92642211914062	-629.7901611328125	-454.107177734375	45.76179504394531	-551.37890625	-124.3178329467773	475.051025390625	-300.2888793945312	-183.5425109863281	719.3462524414062	-240.9291839599609	-454.3708190917969	171.9985046386719	-315.7226867675781	-177.6124572753906	366.6616516113281	-318.4819030761719	-337.6864318847656	56.09354400634766	-427.1318969726562	-390.2454528808594	96.85560607910156	-445.3281860351562	-388.5473022460938	88.08643341064453	-327.90380859375	-500.5981140136719	215.5281219482422	-345.6115112304688	-345.1155395507812	954.1411743164062	-574.0469970703125	
337	3.36	-386.2671813964844	975.2288208007812	-297.0470275878906	-397.0520324707031	992.4255981445312	-470.6524963378906	-372.9958801269531	1060.823974609375	-384.7682495117188	-109.3465042114258	1220.414184570312	-411.2180480957031	-378.2300109863281	1179.1162109375	-379.6066284179688	-316.1288757324219	1418.214599609375	-404.0134887695312	-166.2764434814453	1324.02587890625	-411.4849548339844	-370.1903991699219	1287.843627929688	-318.1780700683594	-341.253173828125	1380.372802734375	-505.541015625	-256.0313415527344	1383.053833007812	-565.6351318359375	-298.005615234375	1275.811279296875	-646.9141845703125	-313.8686828613281	1078.347900390625	-687.0812377929688	-358.7441711425781	1055.327392578125	-617.7906494140625	-242.4100952148438	855.2548217773438	-718.2742919921875	-304.6798095703125	853.5493774414062	-754.460205078125	-314.0447692871094	977.1986083984375	-716.6312255859375	-257.7391357421875	675.4082641601562	-760.5741577148438	-306.9463195800781	768.95751953125	-772.5816650390625	-241.8181762695312	762.4603881835938	-769.4356689453125	-232.7440948486328	1394.05078125	-253.4498138427734	-234.6703338623047	1338.428466796875	-184.1910705566406	-242.0020599365234	1076.662353515625	-110.0199890136719	-292.0617980957031	1062.735717773438	-189.9876098632812	-146.45556640625	855.68505859375	-172.7643280029297	-172.4483489990234	852.0313110351562	-91.37854766845703	-214.6777191162109	1010.634826660156	-98.58027648925781	-126.5862655639648	672.5491333007812	-164.4468383789062	-103.7132797241211	744.4302978515625	-154.1631164550781	-140.6118469238281	744.0018920898438	-93.73160552978516	-300.8922729492188	1563.3212890625	-334.4674072265625	-119.0502624511719	1611.621215820312	-432.4039916992188	-128.1846771240234	1598.062744140625	-340.9353942871094	-285.4035034179688	1574.687622070312	-479.5729675292969	-278.363525390625	915.570556640625	-205.9397583007812	-169.1891937255859	928.6700439453125	-288.4366149902344	-195.448974609375	949.5244140625	-538.83984375	-268.8238830566406	485.4644775390625	-598.0484619140625	-276.6797790527344	629.2285766601562	-603.133544921875	-409.5610961914062	51.14639663696289	-612.0496826171875	-336.973388671875	262.3893127441406	-615.7929077148438	-198.2758026123047	34.9096794128418	-566.1642456054688	-269.4054565429688	27.80747032165527	-519.8099975585938	-289.0106811523438	41.96389389038086	-629.8015747070312	-454.2215576171875	46.43676376342773	-551.7533569335938	-110.513298034668	478.2932434082031	-299.8501892089844	-176.3098449707031	722.3696899414062	-241.0334625244141	-428.9556579589844	161.7540740966797	-327.3326110839844	-160.0680541992188	367.4255676269531	-320.9836730957031	-304.1838989257812	55.73804092407227	-439.7869262695312	-358.4065551757812	94.08303833007812	-457.5444946289062	-357.8342895507812	82.06246948242188	-340.31640625	-476.651611328125	203.5176544189453	-356.4680786132812	-336.6568298339844	953.8803100585938	-576.4984741210938	
338	3.37	-381.2537231445312	975.54150390625	-300.0899047851562	-389.6484680175781	992.6883544921875	-473.6764526367188	-366.2559814453125	1060.160766601562	-388.4637756347656	-101.8174667358398	1220.2763671875	-409.9218444824219	-371.5535583496094	1179.032348632812	-384.4061889648438	-308.1239013671875	1418.218872070312	-407.5154418945312	-158.4903869628906	1324.0146484375	-411.3446960449219	-364.5712890625	1287.811157226562	-323.1842041015625	-330.9570617675781	1380.41748046875	-509.6270141601562	-244.4105072021484	1383.217529296875	-567.4930419921875	-283.7801513671875	1276.00927734375	-649.99951171875	-295.7660522460938	1078.705444335938	-692.3928833007812	-342.2865905761719	1054.525634765625	-624.2155151367188	-218.8223114013672	857.8360595703125	-723.785400390625	-280.2606506347656	855.1200561523438	-761.408935546875	-293.2787780761719	977.9202880859375	-722.7784423828125	-229.0785064697266	678.2589111328125	-768.5200805664062	-280.0078125	770.7634887695312	-780.5784301757812	-215.1839599609375	765.2552490234375	-775.6988525390625	-228.8907012939453	1394.046264648438	-254.8661651611328	-233.27001953125	1338.871704101562	-185.615478515625	-244.9231567382812	1077.893676757812	-109.641487121582	-290.93017578125	1063.14892578125	-192.0051727294922	-145.1938323974609	856.7274780273438	-164.8961334228516	-176.1884918212891	853.5006713867188	-85.15388488769531	-218.0317077636719	1012.008239746094	-96.02601623535156	-124.9946594238281	673.8653564453125	-153.9128112792969	-103.1193084716797	745.9130249023438	-142.5810089111328	-143.9225921630859	745.7268676757812	-84.62171173095703	-292.9229736328125	1564.43359375	-338.0331115722656	-107.6329803466797	1609.865112304688	-430.7745056152344	-119.5862274169922	1596.6591796875	-339.6273193359375	-273.0811462402344	1575.240844726562	-482.6388549804688	-274.2033386230469	916.3599853515625	-207.5925140380859	-164.2796630859375	929.0418090820312	-289.0792846679688	-187.2621002197266	949.018310546875	-539.9237670898438	-266.1631774902344	485.0440063476562	-598.600830078125	-271.7870483398438	628.8536987304688	-603.6943969726562	-409.3782958984375	51.58443069458008	-612.2479248046875	-335.844482421875	262.4648742675781	-616.0410766601562	-198.3352508544922	34.9642333984375	-566.2318115234375	-269.4785766601562	27.65757942199707	-519.8409423828125	-288.9376220703125	42.00120544433594	-629.8136596679688	-454.3414611816406	47.12001800537109	-552.0970458984375	-97.35935211181641	481.3425598144531	-299.0019226074219	-169.3976593017578	725.1029663085938	-240.9189910888672	-402.3071899414062	151.0183258056641	-338.1973876953125	-142.7102813720703	368.0098571777344	-322.9494018554688	-269.4185180664062	55.27896499633789	-450.6103515625	-325.298583984375	90.87697601318359	-468.3780517578125	-326.0551452636719	75.91561126708984	-351.3955688476562	-451.4312438964844	190.6529541015625	-367.0389709472656	-328.3179931640625	953.5794067382812	-578.7863159179688	
